<svg width="40" height="40" viewBox="0 0 40 40" fill="none" xmlns="http://www.w3.org/2000/svg">
<path d="M15.3333 0H3.55556C1.55556 0 0 1.54696 0 3.53591V22.3204C0 24.3094 1.55556 25.8564 3.55556 25.8564H15.3333C17.3333 25.8564 18.8889 24.3094 18.8889 22.3204V3.53591C18.8889 1.54696 17.3333 0 15.3333 0ZM14.2222 20.9945H4.66667V4.64088H14V20.9945H14.2222ZM15.3333 28.0663H3.55556C1.55556 28.0663 0 29.6133 0 31.6022V36.2431C0 38.232 1.55556 39.779 3.55556 39.779H15.3333C17.3333 39.779 18.8889 38.232 18.8889 36.2431V31.6022C18.8889 29.6133 17.3333 28.0663 15.3333 28.0663ZM14.2222 35.1381H4.66667V32.7072H14V35.1381H14.2222ZM36.4444 14.1436H24.6667C22.6667 14.1436 21.1111 15.6906 21.1111 17.6796V36.4641C21.1111 38.453 22.6667 40 24.6667 40H36.4444C38.4444 40 40 38.453 40 36.4641V17.6796C40 15.6906 38.4444 14.1436 36.4444 14.1436ZM35.3333 35.1381H26V18.7845H35.3333V35.1381ZM36.4444 0H24.6667C22.6667 0 21.1111 1.54696 21.1111 3.53591V8.1768C21.1111 10.1657 22.6667 11.7127 24.6667 11.7127H36.4444C38.4444 11.7127 40 10.1657 40 8.1768V3.53591C40 1.54696 38.4444 0 36.4444 0ZM35.3333 7.07182H26V4.64088H35.3333V7.07182Z" fill="#8000FF"/>
</svg>
