<svg width="40" height="40" viewBox="0 0 40 40" fill="none" xmlns="http://www.w3.org/2000/svg">
<path d="M34.9837 0H16.6504C15.3255 0.00395682 14.0561 0.532012 13.1192 1.46884C12.1824 2.40566 11.6543 3.67513 11.6504 5V15H26.6504C27.9765 15 29.2482 15.5268 30.1859 16.4645C31.1236 17.4021 31.6504 18.6739 31.6504 20C31.6504 21.3261 31.1236 22.5979 30.1859 23.5355C29.2482 24.4732 27.9765 25 26.6504 25H11.6504V35C11.6543 36.3249 12.1824 37.5943 13.1192 38.5312C14.0561 39.468 15.3255 39.996 16.6504 40H34.9837C36.3086 39.996 37.5781 39.468 38.5149 38.5312C39.4517 37.5943 39.9798 36.3249 39.9837 35V5C39.9798 3.67513 39.4517 2.40566 38.5149 1.46884C37.5781 0.532012 36.3086 0.00395682 34.9837 0Z" fill="#8000FF"/>
<path d="M5.66863 21.6663H26.652C27.094 21.6663 27.5179 21.4907 27.8305 21.1782C28.143 20.8656 28.3186 20.4417 28.3186 19.9997C28.3186 19.5576 28.143 19.1337 27.8305 18.8211C27.5179 18.5086 27.094 18.333 26.652 18.333H5.66863L7.83529 16.183C8.14913 15.8692 8.32545 15.4435 8.32545 14.9997C8.32545 14.5558 8.14913 14.1302 7.83529 13.8163C7.52146 13.5025 7.0958 13.3262 6.65196 13.3262C6.20813 13.3262 5.78247 13.5025 5.46863 13.8163L0.468628 18.8163C0.167583 19.1368 0 19.56 0 19.9997C0 20.4394 0.167583 20.8625 0.468628 21.183L5.46863 26.183C5.78777 26.4867 6.21144 26.656 6.65196 26.656C7.09249 26.656 7.51615 26.4867 7.83529 26.183C8.14755 25.8683 8.32277 25.443 8.32277 24.9997C8.32277 24.5563 8.14755 24.131 7.83529 23.8163L5.66863 21.6663Z" fill="#8000FF"/>
</svg>
