<svg width="40" height="40" viewBox="0 0 40 40" fill="none" xmlns="http://www.w3.org/2000/svg">
<path d="M20 0C25.298 0 30.398 2.09989 34.138 5.8597C37.898 9.62151 40 14.6993 40 20.019C40 27.0186 36.318 33.5183 30.318 37.1381C24.318 40.7579 16.858 40.9579 10.66 37.6581H10.598C10 37.4181 9.518 36.9981 8.958 36.7181C8.34 36.4582 7.638 36.4182 7 36.6202C5.518 37.1381 4.018 37.5581 2.478 37.9181C1.678 37.9381 1.438 37.4581 1.438 36.6781C1.798 35.0982 2.278 33.5363 2.84 32.0184C3.058 31.3584 3 30.6585 2.66 30.0365L2.26 29.2585C0.778 26.4387 0 23.2988 0 20.121V19.999C0 14.6993 2.098 9.59951 5.858 5.8597C9.618 2.09989 14.698 0 20 0ZM29.218 17.4591C27.818 17.4591 26.66 18.5991 26.66 20.019C26.66 21.4189 27.818 22.5789 29.218 22.5789C30.638 22.5789 31.778 21.4189 31.778 20.019C31.778 18.5991 30.638 17.4591 29.218 17.4591ZM20 17.4591C18.58 17.4591 17.438 18.5991 17.438 20.019C17.438 21.4189 18.58 22.5789 20 22.5789C21.42 22.5789 22.558 21.4189 22.558 20.019C22.558 18.5991 21.42 17.4591 20 17.4591ZM10.778 17.4591C9.358 17.4591 8.218 18.5991 8.218 20.019C8.218 21.4189 9.358 22.5789 10.778 22.5789C12.178 22.5789 13.34 21.4189 13.34 20.019C13.34 18.5991 12.178 17.4591 10.778 17.4591Z" fill="#FFA822"/>
</svg>
