<svg width="40" height="40" viewBox="0 0 40 40" fill="none" xmlns="http://www.w3.org/2000/svg">
<path d="M20.0114 15.9787C24.4478 15.9787 28.0442 12.4038 28.0442 7.98937C28.0442 3.57696 24.4478 0 20.0114 0C15.5749 0 11.9785 3.57696 11.9785 7.98937C11.9785 12.4038 15.5749 15.9787 20.0114 15.9787Z" fill="#8000FF"/>
<path d="M39.9058 34.4608C39.0726 30.6875 37.162 27.2337 34.4033 24.514C33.7338 23.8458 33.0082 23.2355 32.2345 22.6898C28.7108 20.061 24.4158 18.6573 20.0112 18.6951C14.6253 18.6677 9.44707 20.7594 5.60561 24.514C2.84701 27.2337 0.936365 30.6875 0.103118 34.4608C-0.0417128 35.128 -0.0338893 35.819 0.12601 36.4828C0.28591 37.1466 0.593794 37.7662 1.02689 38.2957C1.47543 38.8365 2.04025 39.2705 2.67975 39.5654C3.31925 39.8604 4.01713 40.0089 4.722 40.0001H35.3004C36.0073 40.0005 36.7053 39.8428 37.3426 39.5385C37.9799 39.2342 38.5402 38.7913 38.9821 38.2424C39.4074 37.7191 39.7108 37.1086 39.8706 36.4547C40.0303 35.8008 40.0423 35.1198 39.9058 34.4608Z" fill="#8000FF"/>
</svg>
