<svg width="84" height="84" viewBox="0 0 84 84" fill="none" xmlns="http://www.w3.org/2000/svg">
<path d="M33.6663 0.333008C15.2872 0.333008 0.333008 15.2872 0.333008 33.6663C0.333008 52.0455 15.2872 66.9997 33.6663 66.9997C40.9788 66.9997 47.7301 64.6034 53.2301 60.595L74.6901 82.055C75.7068 83.0717 77.0391 83.585 78.3766 83.585C79.7141 83.585 81.0383 83.0717 82.055 82.055C84.0925 80.0175 84.0925 76.7234 82.055 74.6901L60.595 53.2301C64.6034 47.7301 66.9997 40.9788 66.9997 33.6663C66.9997 15.2872 52.0455 0.333008 33.6663 0.333008ZM33.6663 10.7497C46.2997 10.7497 56.583 21.0288 56.583 33.6663C56.583 46.3038 46.2997 56.583 33.6663 56.583C21.033 56.583 10.7497 46.3038 10.7497 33.6663C10.7497 21.0288 21.033 10.7497 33.6663 10.7497ZM33.6663 21.1663C30.3511 21.1663 27.1717 22.4833 24.8275 24.8275C22.4833 27.1717 21.1663 30.3511 21.1663 33.6663C21.1663 36.9815 22.4833 40.161 24.8275 42.5052C27.1717 44.8494 30.3511 46.1663 33.6663 46.1663C36.9815 46.1663 40.161 44.8494 42.5052 42.5052C44.8494 40.161 46.1663 36.9815 46.1663 33.6663C46.1663 30.3511 44.8494 27.1717 42.5052 24.8275C40.161 22.4833 36.9815 21.1663 33.6663 21.1663Z" fill="white"/>
</svg>
