<svg width="80" height="84" viewBox="0 0 80 84" fill="none" xmlns="http://www.w3.org/2000/svg">
<path d="M33.7091 0.333008C31.7133 0.333008 30.0072 1.74382 29.6238 3.70215L28.2322 10.8473C24.8124 12.1405 21.6503 13.9472 18.8735 16.2266L12.0213 13.8665C10.1338 13.2165 8.05712 13.997 7.05712 15.722L0.774566 26.6107C-0.221267 28.3398 0.141168 30.5351 1.64533 31.8434L7.1385 36.6204C6.85282 38.3761 6.66649 40.1634 6.66649 41.9997C6.66649 43.836 6.85282 45.6233 7.1385 47.3789L1.64533 52.1559C0.141168 53.4643 -0.221267 55.6595 0.774566 57.3887L7.05712 68.2773C8.05295 70.0065 10.1338 70.7868 12.0213 70.1409L18.8735 67.7809C21.6493 70.0589 24.814 71.8594 28.2322 73.152L29.6238 80.2972C30.0072 82.2555 31.7133 83.6663 33.7091 83.6663H46.2905C48.2863 83.6663 49.9925 82.2555 50.3758 80.2972L51.7674 73.152C55.1872 71.8588 58.3494 70.0522 61.1261 67.7728L67.9783 70.1328C69.8658 70.7828 71.9425 70.0065 72.9425 68.2773L79.2251 57.3805C80.2209 55.6514 79.8585 53.4643 78.3543 52.1559L72.8611 47.3789C73.1468 45.6233 73.3332 43.836 73.3332 41.9997C73.3332 40.1634 73.1468 38.3761 72.8611 36.6204L78.3543 31.8434C79.8585 30.5351 80.2209 28.3398 79.2251 26.6107L72.9425 15.722C71.9467 13.9928 69.8658 13.2126 67.9783 13.8584L61.1261 16.2184C58.3503 13.9405 55.1857 12.1399 51.7674 10.8473L50.3758 3.70215C49.9925 1.74381 48.2863 0.333008 46.2905 0.333008H33.7091ZM39.9998 25.333C49.204 25.333 56.6665 32.7955 56.6665 41.9997C56.6665 51.2038 49.204 58.6663 39.9998 58.6663C30.7957 58.6663 23.3332 51.2038 23.3332 41.9997C23.3332 32.7955 30.7957 25.333 39.9998 25.333Z" fill="black"/>
</svg>
