<svg width="100" height="100" viewBox="0 0 100 100" fill="none" xmlns="http://www.w3.org/2000/svg">
<path d="M62.4997 10.4163V10.2455C58.5538 9.00592 54.3559 8.33301 49.9997 8.33301C26.9872 8.33301 8.33301 26.9872 8.33301 49.9997C8.33301 51.4059 8.40801 52.7955 8.54342 54.1663H62.4997V10.4163Z" fill="#3F51B5"/>
<path d="M62.5 22.917H81.625C79.6313 20.592 77.3792 18.5066 74.9229 16.667H62.5V22.917Z" fill="#ECEFF1"/>
<path d="M91.4564 54.167H62.5002H8.54395C8.75645 56.3087 9.1752 58.3837 9.7002 60.417H90.3023C90.8252 58.3837 91.2439 56.3087 91.4564 54.167Z" fill="#ECEFF1"/>
<path d="M79.7311 79.167H20.2686C22.6165 81.5607 25.2644 83.6441 28.129 85.417H71.8706C74.7352 83.6441 77.3831 81.5607 79.7311 79.167Z" fill="#ECEFF1"/>
<path d="M88.1774 66.667H11.8232C12.7795 68.8545 13.917 70.9441 15.2191 72.917H84.7816C86.0837 70.9441 87.2191 68.8545 88.1774 66.667Z" fill="#ECEFF1"/>
<path d="M62.5 35.417H88.9917C88.1771 33.242 87.1979 31.1524 86.0479 29.167H62.5V35.417Z" fill="#ECEFF1"/>
<path d="M62.5 47.917H91.5625C91.4563 45.792 91.2437 43.6962 90.8312 41.667H62.5V47.917Z" fill="#ECEFF1"/>
<path d="M62.5 16.667H74.925C71.3354 13.9795 67.3187 11.842 62.9646 10.417H62.5V16.667Z" fill="#F44336"/>
<path d="M62.5 29.167H86.0479C84.7625 26.9462 83.2854 24.8545 81.6271 22.917H62.5V29.167Z" fill="#F44336"/>
<path d="M62.5 41.667H90.8292C90.3917 39.5128 89.7458 37.4378 88.9896 35.417H62.5V41.667Z" fill="#F44336"/>
<path d="M62.5 54.167H91.4562C91.5917 52.7962 91.6667 51.4066 91.6667 50.0003C91.6667 49.2962 91.5958 48.6107 91.5625 47.917H62.5V54.167Z" fill="#F44336"/>
<path d="M90.3002 60.417H9.7002C10.2544 62.5691 10.9481 64.6649 11.8252 66.667H88.1773C89.0523 64.6649 89.746 62.5691 90.3002 60.417Z" fill="#F44336"/>
<path d="M84.7812 72.917H15.2188C16.7 75.1628 18.3917 77.2545 20.2688 79.167H79.7333C81.6083 77.2545 83.3 75.1628 84.7812 72.917Z" fill="#F44336"/>
<path d="M28.1289 85.417C34.4914 89.3545 41.9664 91.667 49.9997 91.667C58.0331 91.667 65.5081 89.3545 71.8706 85.417H28.1289Z" fill="#F44336"/>
<path d="M21.3545 27.083L22.3232 29.1413L24.4795 29.4663L22.917 31.0705L23.292 33.333L21.3545 32.2663L19.417 33.333L19.792 31.0705L18.2295 29.4663L20.3857 29.1413L21.3545 27.083Z" fill="white"/>
<path d="M29.6875 27.083L30.6562 29.1413L32.8125 29.4663L31.25 31.0705L31.625 33.333L29.6875 32.2663L27.75 33.333L28.125 31.0705L26.5625 29.4663L28.7187 29.1413L29.6875 27.083Z" fill="white"/>
<path d="M13.021 32.2669L14.9585 33.3336L14.5835 31.0711L16.146 29.4669L13.9897 29.1419L13.9814 29.1211C13.2939 30.3044 12.6626 31.5232 12.0918 32.7773L13.021 32.2669Z" fill="white"/>
<path d="M38.0205 27.083L38.9893 29.1413L41.1455 29.4663L39.583 31.0705L39.958 33.333L38.0205 32.2663L36.083 33.333L36.458 31.0705L34.8955 29.4663L37.0518 29.1413L38.0205 27.083Z" fill="white"/>
<path d="M46.3545 27.083L47.3232 29.1413L49.4795 29.4663L47.917 31.0705L48.292 33.333L46.3545 32.2663L44.417 33.333L44.792 31.0705L43.2295 29.4663L45.3857 29.1413L46.3545 27.083Z" fill="white"/>
<path d="M54.167 27.083L55.1357 29.1413L57.292 29.4663L55.7295 31.0705L56.1045 33.333L54.167 32.2663L52.2295 33.333L52.6045 31.0705L51.042 29.4663L53.1982 29.1413L54.167 27.083Z" fill="white"/>
<path d="M21.3545 43.75L22.3232 45.8083L24.4795 46.1333L22.917 47.7375L23.292 50L21.3545 48.9333L19.417 50L19.792 47.7375L18.2295 46.1333L20.3857 45.8083L21.3545 43.75Z" fill="white"/>
<path d="M29.6875 43.75L30.6562 45.8083L32.8125 46.1333L31.25 47.7375L31.625 50L29.6875 48.9333L27.75 50L28.125 47.7375L26.5625 46.1333L28.7187 45.8083L29.6875 43.75Z" fill="white"/>
<path d="M38.0205 43.75L38.9893 45.8083L41.1455 46.1333L39.583 47.7375L39.958 50L38.0205 48.9333L36.083 50L36.458 47.7375L34.8955 46.1333L37.0518 45.8083L38.0205 43.75Z" fill="white"/>
<path d="M13.0205 43.75L13.9893 45.8083L16.1455 46.1333L14.583 47.7375L14.958 50L13.0205 48.9333L11.083 50L11.458 47.7375L9.89551 46.1333L12.0518 45.8083L13.0205 43.75Z" fill="white"/>
<path d="M46.3545 43.75L47.3232 45.8083L49.4795 46.1333L47.917 47.7375L48.292 50L46.3545 48.9333L44.417 50L44.792 47.7375L43.2295 46.1333L45.3857 45.8083L46.3545 43.75Z" fill="white"/>
<path d="M54.167 43.75L55.1357 45.8083L57.292 46.1333L55.7295 47.7375L56.1045 50L54.167 48.9333L52.2295 50L52.6045 47.7375L51.042 46.1333L53.1982 45.8083L54.167 43.75Z" fill="white"/>
<path d="M23.4375 35.417L24.4062 37.4753L26.5625 37.8003L25 39.4045L25.375 41.667L23.4375 40.6003L21.5 41.667L21.875 39.4045L20.3125 37.8003L22.4687 37.4753L23.4375 35.417Z" fill="white"/>
<path d="M31.7705 35.417L32.7393 37.4753L34.8955 37.8003L33.333 39.4045L33.708 41.667L31.7705 40.6003L29.833 41.667L30.208 39.4045L28.6455 37.8003L30.8018 37.4753L31.7705 35.417Z" fill="white"/>
<path d="M15.1045 35.417L16.0732 37.4753L18.2295 37.8003L16.667 39.4045L17.042 41.667L15.1045 40.6003L13.167 41.667L13.542 39.4045L11.9795 37.8003L14.1357 37.4753L15.1045 35.417Z" fill="white"/>
<path d="M40.1045 35.417L41.0732 37.4753L43.2295 37.8003L41.667 39.4045L42.042 41.667L40.1045 40.6003L38.167 41.667L38.542 39.4045L36.9795 37.8003L39.1357 37.4753L40.1045 35.417Z" fill="white"/>
<path d="M48.4375 35.417L49.4062 37.4753L51.5625 37.8003L50 39.4045L50.375 41.667L48.4375 40.6003L46.5 41.667L46.875 39.4045L45.3125 37.8003L47.4687 37.4753L48.4375 35.417Z" fill="white"/>
<path d="M56.25 35.417L57.2188 37.4753L59.375 37.8003L57.8125 39.4045L58.1875 41.667L56.25 40.6003L54.3125 41.667L54.6875 39.4045L53.125 37.8003L55.2812 37.4753L56.25 35.417Z" fill="white"/>
<path d="M23.4375 18.75L24.4062 20.8083L26.5625 21.1333L25 22.7375L25.375 25L23.4375 23.9333L21.5 25L21.875 22.7375L20.3125 21.1333L22.4687 20.8083L23.4375 18.75Z" fill="white"/>
<path d="M31.7705 18.75L32.7393 20.8083L34.8955 21.1333L33.333 22.7375L33.708 25L31.7705 23.9333L29.833 25L30.208 22.7375L28.6455 21.1333L30.8018 20.8083L31.7705 18.75Z" fill="white"/>
<path d="M40.1045 18.75L41.0732 20.8083L43.2295 21.1333L41.667 22.7375L42.042 25L40.1045 23.9333L38.167 25L38.542 22.7375L36.9795 21.1333L39.1357 20.8083L40.1045 18.75Z" fill="white"/>
<path d="M48.4375 18.75L49.4062 20.8083L51.5625 21.1333L50 22.7375L50.375 25L48.4375 23.9333L46.5 25L46.875 22.7375L45.3125 21.1333L47.4687 20.8083L48.4375 18.75Z" fill="white"/>
<path d="M56.25 18.75L57.2188 20.8083L59.375 21.1333L57.8125 22.7375L58.1875 25L56.25 23.9333L54.3125 25L54.6875 22.7375L53.125 21.1333L55.2812 20.8083L56.25 18.75Z" fill="white"/>
<path d="M31.625 16.6665L31.25 14.404L32.8125 12.7999L31.6646 12.627C30.4375 13.229 29.2479 13.8895 28.0917 14.6061L27.75 16.6665L29.6875 15.5999L31.625 16.6665Z" fill="white"/>
<path d="M38.0205 10.417L38.9893 12.4753L41.1455 12.8003L39.583 14.4045L39.958 16.667L38.0205 15.6003L36.083 16.667L36.458 14.4045L34.8955 12.8003L37.0518 12.4753L38.0205 10.417Z" fill="white"/>
<path d="M46.3545 10.417L47.3232 12.4753L49.4795 12.8003L47.917 14.4045L48.292 16.667L46.3545 15.6003L44.417 16.667L44.792 14.4045L43.2295 12.8003L45.3857 12.4753L46.3545 10.417Z" fill="white"/>
<path d="M54.167 10.417L55.1357 12.4753L57.292 12.8024L55.7295 14.4066L56.1045 16.667L54.167 15.6003L52.2295 16.667L52.6045 14.4045L51.042 12.8003L53.1982 12.4753L54.167 10.417Z" fill="white"/>
</svg>
